<svg
	width="20"
	height="20"
	viewBox="0 0 20 20"
	fill="none"
	xmlns="http://www.w3.org/2000/svg"
>
	<path
		fill-rule="evenodd"
		clip-rule="evenodd"
		d="M6.66667 19.1666C7.58714 19.1666 8.33333 18.4205 8.33333 17.5C8.33333 16.5795 7.58714 15.8333 6.66667 15.8333C5.74619 15.8333 5 16.5795 5 17.5C5 18.4205 5.74619 19.1666 6.66667 19.1666Z"
		stroke="#404BD9"
		stroke-width="1.66667"
		stroke-linecap="round"
		stroke-linejoin="round"
	></path>
	<path
		fill-rule="evenodd"
		clip-rule="evenodd"
		d="M16.6667 19.1666C17.5871 19.1666 18.3333 18.4205 18.3333 17.5C18.3333 16.5795 17.5871 15.8333 16.6667 15.8333C15.7462 15.8333 15 16.5795 15 17.5C15 18.4205 15.7462 19.1666 16.6667 19.1666Z"
		stroke="#404BD9"
		stroke-width="1.66667"
		stroke-linecap="round"
		stroke-linejoin="round"
	></path>
	<path
		d="M4.72516 4.99998H19.1668L17.7668 11.9916C17.6095 12.7835 16.9073 13.3488 16.1002 13.3333H7.29183C6.44973 13.3405 5.73461 12.7183 5.62516 11.8833L4.3585 2.28331C4.24985 1.45464 3.54426 0.834578 2.7085 0.833313H0.833496"
		stroke="#404BD9"
		stroke-width="1.66667"
		stroke-linecap="round"
		stroke-linejoin="round"
	></path>
</svg>
