<svg fill="white" height="26" viewbox="0 0 106 22" width="130" xmlns="http://www.w3.org/2000/svg">
	<path d="M55.9551 6.6973C52.757 6.70412 50.4877 8.99366 50.4809 12.7163C50.4809 16.108 53.1991 18.2167 55.9791 18.2201C57.6313 18.2201 58.6597 17.9676 59.2561 17.4797V15.5961C58.406 16.0124 57.3982 16.1455 56.507 16.1455C54.7931 16.1489 53.4151 15.2174 53.1923 13.7229L53.1717 13.5898H55.1736C57.052 13.5932 58.3786 13.4192 59.2116 13.0063C60.0445 12.5935 60.4079 11.969 60.4113 10.9591C60.4079 8.32489 58.2758 6.70071 55.9551 6.6973ZM57.2577 11.5767C56.7401 11.7575 55.9071 11.8257 54.5566 11.8292H53.1649L53.1717 11.7063L53.1923 11.3276C53.254 9.97977 54.2549 8.80941 55.7049 8.80941C56.3768 8.80941 56.9423 8.95613 57.3468 9.2564C57.7547 9.56008 57.9844 10.0275 57.981 10.6213C57.9878 11.0546 57.7787 11.4026 57.2577 11.5767ZM61.7893 10.9966V18.029H64.4116V11.4982C64.415 10.6247 64.5898 9.99683 64.9498 9.57373C65.3097 9.15745 65.8444 8.97319 66.4991 8.97319C66.7665 8.97319 66.9996 8.99708 67.2121 9.03461V6.96344C66.8796 6.79625 66.4477 6.69047 65.8821 6.69047C62.9445 6.6973 61.7996 8.76846 61.7893 10.9966ZM27.2744 3.8584V18.029H29.8933V3.8584H27.2744ZM36.9581 6.6973C33.4617 6.70412 31.9397 9.08238 31.926 11.4197V18.029H34.5311V11.6108C34.5311 10.785 34.7471 10.1197 35.1344 9.66244C35.5218 9.2018 36.0805 8.95954 36.725 8.95954C37.4757 8.95954 38.0927 9.17451 38.5143 9.65562C38.9325 10.1367 39.1484 10.8533 39.1484 11.8189L39.1519 18.029H41.7536V11.5698C41.7502 8.42043 39.5941 6.70412 36.9581 6.6973ZM46.3606 3.8584H43.7692L43.776 14.0846C43.7897 16.6778 45.1026 18.2098 47.9374 18.2201C49.1406 18.2201 49.8639 17.8311 50.1621 17.2067V15.5927C49.6959 15.7975 49.0617 15.8896 48.2768 15.8896C47.6872 15.8896 47.197 15.7395 46.8611 15.3846C46.5251 15.0297 46.3572 14.4906 46.3572 13.7399V8.95954H48.6298C49.7405 8.95954 50.2066 8.25323 50.2066 7.73459V6.6973H46.3572V3.8584H46.3606Z" fill="#fff"></path>
	<path clip-rule="evenodd" d="M3.52978 0.818115C2.03181 0.818115 0.818359 2.03625 0.818359 3.53418V21.0521H18.434C19.932 21.0521 21.1489 19.8374 21.1489 18.3394L21.1523 0.818115H3.52978ZM16.3979 15.4255L5.56249 17.3738V6.48909L16.3979 4.54076V15.4255Z" fill="#fff" fill-rule="evenodd"></path>
	<path d="M89.1025 10.9692V17.9948H91.7248V11.4742C91.7248 10.6007 91.8996 9.96946 92.2596 9.55318C92.6195 9.13348 93.1542 8.94923 93.8055 8.95264C94.0763 8.95264 94.3094 8.97312 94.5219 9.01065V6.94289C94.1929 6.7757 93.761 6.66992 93.1954 6.66992C90.2611 6.67675 89.1128 8.7445 89.1025 10.9692Z" fill="#fff"></path>
	<path d="M82.6753 6.66992C79.2338 6.66992 77.3999 9.34504 77.3999 12.6753C77.3999 15.6165 79.2338 18.1074 82.4388 18.1074C85.8804 18.1074 87.7177 15.6165 87.7177 12.2863C87.7177 9.34504 85.8769 6.66992 82.6753 6.66992ZM82.6788 15.7394C80.8689 15.7394 80.0736 14.5451 80.0736 12.2761C80.0736 10.3926 80.8689 9.03453 82.4354 9.03453C84.2281 9.03453 85.044 10.3892 85.044 12.6787C85.044 14.5451 84.2693 15.7394 82.6788 15.7394Z" fill="#fff"></path>
	<path d="M70.7771 13.0472L70.7942 13.1803C71.0171 14.6714 72.1791 15.9782 73.8896 15.9748C74.7808 15.9748 75.7852 15.8417 76.6353 15.4255V17.2032C76.0388 17.6877 75.0105 18.1791 73.3617 18.1791C70.5851 18.1756 67.8086 16.0704 67.8086 12.6855C67.8154 8.96629 70.143 6.67333 73.3411 6.66992C73.3446 6.66992 73.3446 6.67333 73.3446 6.67333C73.3514 6.67333 73.3548 6.66992 73.3617 6.66992C75.0105 6.66992 76.0388 7.14421 76.6353 7.62873V9.42693C75.7886 9.01065 74.7808 8.87416 73.8896 8.87416C72.1859 8.87416 71.0033 10.1605 70.7702 11.638C70.6503 12.3887 70.7771 13.0472 70.7771 13.0472Z" fill="#fff"></path>
	<path d="M100.668 6.77905C96.8835 6.77905 95.2896 9.34839 95.2896 13.054V19.2538C95.2896 20.4515 96.2082 21.1817 97.1611 21.1817H97.9975C97.9975 21.1817 97.9975 18.3598 97.9975 16.8039C98.5323 17.7559 99.5126 18.3053 100.706 18.3053C103.832 18.3053 105.546 15.8724 105.546 12.2862C105.546 9.47123 103.516 6.77905 100.668 6.77905ZM100.61 15.9952C99.0156 15.9952 97.9633 14.7327 97.9633 12.491C97.9633 10.5665 98.7791 9.24262 100.253 9.24262C101.964 9.24262 102.803 10.3823 102.803 &#10;13.013C102.8 14.7942 101.902 15.9952 100.61 15.9952Z" fill="#fff"></path>
</svg>
