<svg xmlns="http://www.w3.org/2000/svg" viewBox="0 0 156.032 26.005">
							<path
								d="M0,17.45,7.591,8.895H.572V5.876H12.9V8.895L5.287,17.45h8.127v3.018H0Zm18.718-3.3c.107,2.536,1.357,3.7,3.59,3.7A3.287,3.287,0,0,0,25.47,15.95h3.536a6.568,6.568,0,0,1-6.841,4.912c-4.608,0-7.448-3.161-7.448-7.68,0-4.376,3.018-7.716,7.448-7.716,4.965,0,7.377,4.179,7.091,8.68Zm6.537-2.536C24.88,9.573,24,8.5,22.058,8.5a3.185,3.185,0,0,0-3.34,3.108Zm20.272,7.93c0,2.393-.839,6.466-7.573,6.466-2.876,0-6.233-1.357-6.448-4.7h3.983c.375,1.5,1.59,2,3,2,2.233,0,3.251-1.518,3.215-3.608V17.789h-.054a4.953,4.953,0,0,1-4.376,2.268c-4.376,0-6.233-3.34-6.233-7.341,0-3.786,2.179-7.234,6.269-7.234a4.546,4.546,0,0,1,4.358,2.34h.054V5.876h3.822V19.54Zm-3.8-6.555c0-2.375-.822-4.483-3.411-4.483-2.268,0-3.251,1.983-3.251,4.144,0,2.09.786,4.376,3.251,4.376C40.58,17.021,41.723,15.075,41.723,12.985Zm10.2,1.161c.107,2.536,1.357,3.7,3.59,3.7a3.287,3.287,0,0,0,3.161-1.893h3.536a6.568,6.568,0,0,1-6.841,4.912c-4.608,0-7.448-3.161-7.448-7.68,0-4.376,3.018-7.716,7.448-7.716,4.965,0,7.377,4.179,7.091,8.68Zm6.519-2.536c-.375-2.036-1.25-3.108-3.2-3.108A3.185,3.185,0,0,0,51.9,11.61ZM64.8.3h4.019V20.468H64.8ZM73.587,5.7H75.6l4.662,13.056h.054L84.928,5.7H86.8l-5.555,14.86H79.32ZM88.482,0H90.3V2.911H88.482Zm0,5.7H90.3v14.86H88.482Zm5.162,0h1.679V9.18h.054A5.523,5.523,0,0,1,101,5.483v1.84a5.121,5.121,0,0,0-5.537,5.323v7.93H93.644Zm13.217,0h3.018V7.234h-3.018v10.02c0,1.179.179,1.875,1.465,1.965a15.1,15.1,0,0,0,1.554-.089v1.554c-.554,0-1.072.054-1.607.054-2.429,0-3.251-.8-3.233-3.34V7.216h-2.59V5.68h2.59V1.215h1.822V5.7Zm17.557,14.878h-1.679V17.9h-.054A5.532,5.532,0,0,1,117.56,21c-3.751,0-5.215-2.2-5.215-5.644V5.715h1.822V15.4c.089,2.679,1.09,4.09,3.983,4.09,3.108,0,4.465-2.947,4.465-5.966V5.7h1.822V20.576Zm3.108-10.324c.179-3.483,2.626-4.983,6.019-4.983,2.626,0,5.483.8,5.483,4.787V17.95a.96.96,0,0,0,1.072,1.09,1.809,1.809,0,0,0,.572-.107v1.536a4.905,4.905,0,0,1-1.179.107c-1.84,0-2.125-1.036-2.125-2.59h-.054A5.671,5.671,0,0,1,131.9,21c-2.733,0-4.983-1.357-4.983-4.358,0-4.179,4.054-4.322,7.984-4.787,1.5-.179,2.34-.375,2.34-2.018,0-2.447-1.75-3.054-3.894-3.054-2.25,0-3.912,1.036-3.983,3.465h-1.84Zm9.681,2.2h-.054c-.232.429-1.036.572-1.536.661-3.09.554-6.912.518-6.912,3.429a3.1,3.1,0,0,0,3.322,2.947c2.768,0,5.215-1.75,5.18-4.662ZM142.529,0h1.822V20.576h-1.822Zm3.429,22.094h10.073v1H145.959Z"
								fill="#FFF"
							></path>
						</svg>
